<?xml version="1.0" encoding="utf-8"?>
<!-- Generator: Adobe Illustrator 18.0.0, SVG Export Plug-In . SVG Version: 6.00 Build 0)  -->
<!DOCTYPE svg PUBLIC "-//W3C//DTD SVG 1.1//EN" "http://www.w3.org/Graphics/SVG/1.1/DTD/svg11.dtd">
<svg version="1.1" xmlns="http://www.w3.org/2000/svg" xmlns:xlink="http://www.w3.org/1999/xlink" x="0px" y="0px" width="486px"
	 height="496.1px" viewBox="-123 -125.6 486 496.1" enable-background="new -123 -125.6 486 496.1" xml:space="preserve">
<g id="Layer_1" display="none">
	<rect x="220" y="100" display="inline" fill="#F42434" width="10" height="110"/>
	<rect x="10" y="140" display="inline" fill="#F42434" width="10" height="30"/>
	<polygon display="inline" fill="#F42434" points="120,235 220,235 220,210 230,210 230,245 10,245 10,210 20,210 20,235 	"/>
	<polygon display="inline" fill="#F42434" points="20,90 20,100 10,100 10,90 0,90 0,85 120,0 240,85 240,90 230,90 230,100 
		220,100 220,90 120,20 	"/>
	<rect x="11" y="100" display="inline" fill="#FFE1DA" width="8" height="40"/>
	<rect x="11" y="170" display="inline" fill="#FFE1DA" width="8" height="40"/>
</g>
<g id="Layer_2">
	<path opacity="0.3" fill="#9D9D9C" d="M229.9,113.1c2.4,0,4.4,2,4.4,4.4l0.1,28.6c0,5.9,4.8,10.6,10.6,10.6
		c5.8,0,10.6-4.8,10.6-10.6l0.1-28.6c0-2.4,2-4.4,4.4-4.4c2.4,0,4.4,2,4.4,4.4l0.1,28.6c0,5.9,4.8,10.6,10.6,10.6
		s10.6-4.8,10.6-10.6l0.1-11.8c0-2.4,1.9-4.4,4.3-4.4v0h7.6v2.9l11.3-5.6c0.3-0.1,0.3-0.6,0-0.7l-11.3-5.6v2.9h-7.5v0
		c-5.8,0-10.6,4.8-10.6,10.6l-0.1,11.8c0,2.4-2,4.4-4.4,4.4s-4.4-2-4.4-4.4l-0.1-28.6c0-5.8-4.7-10.6-10.6-10.6v0c0,0,0,0,0,0
		c0,0,0,0,0,0v0c-5.8,0-10.6,4.8-10.6,10.6l-0.1,28.6c0,2.4-2,4.4-4.4,4.4c-2.4,0-4.4-2-4.4-4.4l-0.1-28.6c0-5.8-4.7-10.6-10.6-10.6
		v0c0,0,0,0,0,0s0,0,0,0v0L229.9,113.1z"/>
	<path opacity="0.3" fill="#9D9D9C" d="M172.8,38.8c1.4-2,4.2-2.4,6.2-1l23.3,16.5c4.8,3.4,11.4,2.3,14.8-2.5s2.3-11.4-2.5-14.8
		l-23.2-16.7c-2-1.4-2.4-4.2-1-6.2c1.4-2,4.2-2.4,6.2-1L220,29.7c4.8,3.4,11.4,2.3,14.8-2.5s2.3-11.4-2.5-14.8l-9.5-7
		c-2-1.4-2.4-4.1-1.1-6.1l0,0l4.4-6.2l2.4,1.7l1.9-12.4c0.1-0.3-0.3-0.6-0.6-0.4l-11.1,5.9l2.4,1.7l-4.4,6.1l0,0
		c-3.4,4.8-2.3,11.4,2.5,14.8l9.5,7c2,1.4,2.5,4.2,1,6.2c-1.4,2-4.2,2.4-6.2,1L200.2,8.1c-4.7-3.4-11.4-2.3-14.8,2.4l0,0
		c0,0,0,0,0,0c0,0,0,0,0,0l0,0c-3.4,4.8-2.3,11.4,2.5,14.8l23.2,16.7c2,1.4,2.5,4.2,1,6.2c-1.4,2-4.2,2.4-6.2,1l-23.3-16.5
		c-4.7-3.4-11.4-2.3-14.8,2.4l0,0c0,0,0,0,0,0c0,0,0,0,0,0l0,0L172.8,38.8z"/>
	<path opacity="0.3" fill="#9D9D9C" d="M229.9,193.3c2.4,0,4.4,2,4.4,4.4l0.1,28.6c0,5.9,4.8,10.6,10.6,10.6
		c5.8,0,10.6-4.8,10.6-10.6l0.1-28.6c0-2.4,2-4.4,4.4-4.4c2.4,0,4.4,2,4.4,4.4l0.1,28.6c0,5.9,4.8,10.6,10.6,10.6
		s10.6-4.8,10.6-10.6l0.1-11.8c0-2.4,1.9-4.4,4.3-4.4v0h7.6v2.9l11.3-5.6c0.3-0.1,0.3-0.6,0-0.7L298,201v2.9h-7.5v0
		c-5.8,0-10.6,4.8-10.6,10.6l-0.1,11.8c0,2.4-2,4.4-4.4,4.4s-4.4-2-4.4-4.4l-0.1-28.6c0-5.8-4.7-10.6-10.6-10.6v0c0,0,0,0,0,0
		c0,0,0,0,0,0v0c-5.8,0-10.6,4.8-10.6,10.6l-0.1,28.6c0,2.4-2,4.4-4.4,4.4c-2.4,0-4.4-2-4.4-4.4l-0.1-28.6c0-5.8-4.7-10.6-10.6-10.6
		v0c0,0,0,0,0,0s0,0,0,0v0L229.9,193.3z"/>
	<path opacity="0.3" fill="#9D9D9C" d="M11.5,113.1c-2.4,0-4.4,2-4.4,4.4l-0.1,28.6c0,5.9-4.8,10.6-10.6,10.6s-10.6-4.8-10.6-10.6
		l-0.1-28.6c0-2.4-2-4.4-4.4-4.4c-2.4,0-4.4,2-4.4,4.4l-0.1,28.6c0,5.9-4.8,10.6-10.6,10.6s-10.6-4.8-10.6-10.6l-0.1-11.8
		c0-2.4-1.9-4.4-4.3-4.4v0h-7.6v2.9l-11.3-5.6c-0.3-0.1-0.3-0.6,0-0.7l11.3-5.6v2.9h7.5v0c5.8,0,10.6,4.8,10.6,10.6l0.1,11.8
		c0,2.4,2,4.4,4.4,4.4c2.4,0,4.4-2,4.4-4.4l0.1-28.6c0-5.8,4.7-10.6,10.6-10.6v0c0,0,0,0,0,0c0,0,0,0,0,0v0
		c5.8,0,10.6,4.8,10.6,10.6l0.1,28.6c0,2.4,2,4.4,4.4,4.4s4.4-2,4.4-4.4l0.1-28.6c0-5.8,4.7-10.6,10.6-10.6v0c0,0,0,0,0,0
		c0,0,0,0,0,0v0L11.5,113.1z"/>
	<path opacity="0.3" fill="#9D9D9C" d="M11.5,193.3c-2.4,0-4.4,2-4.4,4.4l-0.1,28.6c0,5.9-4.8,10.6-10.6,10.6s-10.6-4.8-10.6-10.6
		l-0.1-28.6c0-2.4-2-4.4-4.4-4.4c-2.4,0-4.4,2-4.4,4.4l-0.1,28.6c0,5.9-4.8,10.6-10.6,10.6s-10.6-4.8-10.6-10.6l-0.1-11.8
		c0-2.4-1.9-4.4-4.3-4.4v0h-7.6v2.9l-11.3-5.6c-0.3-0.1-0.3-0.6,0-0.7l11.3-5.6v2.9h7.5v0c5.8,0,10.6,4.8,10.6,10.6l0.1,11.8
		c0,2.4,2,4.4,4.4,4.4c2.4,0,4.4-2,4.4-4.4l0.1-28.6c0-5.8,4.7-10.6,10.6-10.6v0c0,0,0,0,0,0c0,0,0,0,0,0v0
		c5.8,0,10.6,4.8,10.6,10.6l0.1,28.6c0,2.4,2,4.4,4.4,4.4s4.4-2,4.4-4.4l0.1-28.6c0-5.8,4.7-10.6,10.6-10.6v0c0,0,0,0,0,0
		c0,0,0,0,0,0v0L11.5,193.3z"/>
	<path opacity="0.3" fill="#9D9D9C" d="M129.5,240.7c0,2.4-2,4.4-4.4,4.4l-9.6,0.1c-5.9,0-10.6,4.8-10.6,10.6
		c0,5.8,4.8,10.6,10.6,10.6l7.8,0.1c2.4,0,4.4,1.9,4.4,4.3h0v7.6h-2.9l5.6,11.3c0.1,0.3,0.6,0.3,0.7,0l5.6-11.3h-2.9V271h0
		c0-5.8-4.8-10.6-10.6-10.6l-7.8-0.1c-2.4,0-4.4-2-4.4-4.4s2-4.4,4.4-4.4l9.6-0.1c5.8,0,10.6-4.7,10.6-10.6h0c0,0,0,0,0,0s0,0,0,0h0
		L129.5,240.7z"/>
	<g>
		<text transform="matrix(1 0 0 1 282.7665 179.5059)" fill="#3C3C3B" font-family="'Karla-Regular'" font-size="10.1286">Walls</text>
	</g>
	<g>
		<text transform="matrix(1 0 0 1 282.7665 191.5909)" fill="#F42534" font-family="'Karla-Regular'" font-size="10.1286">113 W/K</text>
	</g>
	<g>
		<text transform="matrix(1 0 0 1 -89.7339 179.5059)" fill="#3C3C3B" font-family="'Karla-Regular'" font-size="10.1286">Ventilation</text>
	</g>
	<g>
		<text transform="matrix(1 0 0 1 -89.7339 191.5909)" fill="#F42534" font-family="'Karla-Regular'" font-size="10.1286">152 W/K</text>
	</g>
	<g>
		<text transform="matrix(1 0 0 1 242.2665 -6.4941)" fill="#3C3C3B" font-family="'Karla-Regular'" font-size="10.1286">Roof</text>
	</g>
	<g>
		<text transform="matrix(1 0 0 1 242.2665 5.5909)" fill="#F42534" font-family="'Karla-Regular'" font-size="10.1286">119 W/K</text>
	</g>
	<g>
		<text transform="matrix(1 0 0 1 142.9214 254.8392)" fill="#3C3C3B" font-family="'Karla-Regular'" font-size="10.1286">Floor</text>
	</g>
	<g>
		<text transform="matrix(1 0 0 1 142.9214 266.9242)" fill="#F42534" font-family="'Karla-Regular'" font-size="10.1286">12 W/K</text>
	</g>
	<text transform="matrix(1 0 0 1 281.7548 105.1725)" fill="#3C3C3B" font-family="'Karla-Regular'" font-size="10.1286">Thermal bridging</text>
	<text transform="matrix(1 0 0 1 281.7548 117.2575)" fill="#F42534" font-family="'Karla-Regular'" font-size="10.1286">112 W/K</text>
	<text transform="matrix(1 0 0 1 -79.2452 105.1725)" fill="#3C3C3B" font-family="'Karla-Regular'" font-size="10.1286">Windows</text>
	<text transform="matrix(1 0 0 1 -79.2452 117.2575)" fill="#F42534" font-family="'Karla-Regular'" font-size="10.1286">146 W/K</text>
	<rect x="16.9" y="98.4" fill="#FFE1DB" width="6.7" height="38.3"/>
	<g>
		<rect x="16.1" y="137" fill="#F42534" width="8.3" height="29.1"/>
	</g>
	<polygon fill="#F42534" points="229.9,85.2 229.9,85.2 229.9,85.2 120.8,8.2 120.8,8.2 120.8,8.2 120.8,8.2 120.8,8.2 11.7,85.2 
		11.7,85.2 11.7,85.2 11.7,94.7 16.1,94.7 16.1,98.3 24.4,98.3 24.4,90.5 120.8,22.4 217.3,90.5 217.3,228.6 24.4,228.6 24.4,203.9 
		16.1,203.9 16.1,236.9 225.6,236.9 225.6,94.7 229.9,94.7 	"/>
	<g>
		<defs>
			<rect id="SVGID_1_" x="16.9" y="165.9" width="6.8" height="38.5"/>
		</defs>
		<clipPath id="SVGID_2_">
			<use xlink:href="#SVGID_1_"  overflow="visible"/>
		</clipPath>
		
			<line clip-path="url(#SVGID_2_)" fill="none" stroke="#F1654F" stroke-miterlimit="10" x1="-244.8" y1="234" x2="218.4" y2="703"/>
		
			<line clip-path="url(#SVGID_2_)" fill="none" stroke="#F1654F" stroke-miterlimit="10" x1="-238.4" y1="227.5" x2="224.8" y2="696.6"/>
		
			<line clip-path="url(#SVGID_2_)" fill="none" stroke="#F1654F" stroke-miterlimit="10" x1="-232" y1="221.1" x2="231.2" y2="690.1"/>
		
			<line clip-path="url(#SVGID_2_)" fill="none" stroke="#F1654F" stroke-miterlimit="10" x1="-225.7" y1="214.6" x2="237.5" y2="683.7"/>
		
			<line clip-path="url(#SVGID_2_)" fill="none" stroke="#F1654F" stroke-miterlimit="10" x1="-219.3" y1="208.2" x2="243.9" y2="677.3"/>
		
			<line clip-path="url(#SVGID_2_)" fill="none" stroke="#F1654F" stroke-miterlimit="10" x1="-212.9" y1="201.7" x2="250.2" y2="670.8"/>
		
			<line clip-path="url(#SVGID_2_)" fill="none" stroke="#F1654F" stroke-miterlimit="10" x1="-222.6" y1="224.3" x2="240.6" y2="693.4"/>
		
			<line clip-path="url(#SVGID_2_)" fill="none" stroke="#F1654F" stroke-miterlimit="10" x1="-216.2" y1="217.8" x2="247" y2="686.9"/>
		
			<line clip-path="url(#SVGID_2_)" fill="none" stroke="#F1654F" stroke-miterlimit="10" x1="-209.8" y1="211.4" x2="253.3" y2="680.5"/>
		
			<line opacity="0.3" clip-path="url(#SVGID_2_)" fill="none" stroke="#F1654F" stroke-miterlimit="10" x1="-203.5" y1="205" x2="259.7" y2="674"/>
		
			<line opacity="0.3" clip-path="url(#SVGID_2_)" fill="none" stroke="#F1654F" stroke-miterlimit="10" x1="-197.1" y1="198.5" x2="266.1" y2="667.6"/>
		
			<line opacity="0.3" clip-path="url(#SVGID_2_)" fill="none" stroke="#F1654F" stroke-miterlimit="10" x1="-190.8" y1="192.1" x2="272.4" y2="661.1"/>
		
			<line opacity="0.3" clip-path="url(#SVGID_2_)" fill="none" stroke="#F1654F" stroke-miterlimit="10" x1="-184.4" y1="185.6" x2="278.8" y2="654.7"/>
		
			<line opacity="0.3" clip-path="url(#SVGID_2_)" fill="none" stroke="#F1654F" stroke-miterlimit="10" x1="-178" y1="179.2" x2="285.2" y2="648.3"/>
		
			<line opacity="0.3" clip-path="url(#SVGID_2_)" fill="none" stroke="#F1654F" stroke-miterlimit="10" x1="-171.7" y1="172.7" x2="291.5" y2="641.8"/>
		
			<line opacity="0.3" clip-path="url(#SVGID_2_)" fill="none" stroke="#F1654F" stroke-miterlimit="10" x1="-165.3" y1="166.3" x2="297.9" y2="635.4"/>
		
			<line opacity="0.3" clip-path="url(#SVGID_2_)" fill="none" stroke="#F1654F" stroke-miterlimit="10" x1="-158.9" y1="159.8" x2="304.2" y2="628.9"/>
		
			<line opacity="0.3" clip-path="url(#SVGID_2_)" fill="none" stroke="#F1654F" stroke-miterlimit="10" x1="-152.6" y1="153.4" x2="326.6" y2="593.5"/>
		
			<line opacity="0.3" clip-path="url(#SVGID_2_)" fill="none" stroke="#F1654F" stroke-miterlimit="10" x1="-146.2" y1="147" x2="333" y2="587"/>
		
			<line opacity="0.3" clip-path="url(#SVGID_2_)" fill="none" stroke="#F1654F" stroke-miterlimit="10" x1="-139.8" y1="140.5" x2="339.3" y2="580.6"/>
		
			<line opacity="0.3" clip-path="url(#SVGID_2_)" fill="none" stroke="#F1654F" stroke-miterlimit="10" x1="-133.5" y1="134.1" x2="345.7" y2="574.1"/>
		
			<line opacity="0.3" clip-path="url(#SVGID_2_)" fill="none" stroke="#F1654F" stroke-miterlimit="10" x1="-127.1" y1="127.6" x2="352.1" y2="567.7"/>
		
			<line opacity="0.3" clip-path="url(#SVGID_2_)" fill="none" stroke="#F1654F" stroke-miterlimit="10" x1="-120.8" y1="121.2" x2="358.4" y2="561.3"/>
		
			<line opacity="0.3" clip-path="url(#SVGID_2_)" fill="none" stroke="#F1654F" stroke-miterlimit="10" x1="-114.4" y1="114.7" x2="364.8" y2="554.8"/>
		
			<line opacity="0.3" clip-path="url(#SVGID_2_)" fill="none" stroke="#F1654F" stroke-miterlimit="10" x1="-108" y1="108.3" x2="371.2" y2="548.4"/>
		
			<line opacity="0.3" clip-path="url(#SVGID_2_)" fill="none" stroke="#F1654F" stroke-miterlimit="10" x1="-101.7" y1="101.8" x2="377.5" y2="541.9"/>
		
			<line opacity="0.3" clip-path="url(#SVGID_2_)" fill="none" stroke="#F1654F" stroke-miterlimit="10" x1="-95.3" y1="95.4" x2="383.9" y2="535.5"/>
		
			<line opacity="0.3" clip-path="url(#SVGID_2_)" fill="none" stroke="#F1654F" stroke-miterlimit="10" x1="-88.9" y1="89" x2="390.3" y2="529"/>
		
			<line opacity="0.3" clip-path="url(#SVGID_2_)" fill="none" stroke="#F1654F" stroke-miterlimit="10" x1="-82.6" y1="82.5" x2="396.6" y2="522.6"/>
		
			<line opacity="0.3" clip-path="url(#SVGID_2_)" fill="none" stroke="#F1654F" stroke-miterlimit="10" x1="-76.2" y1="76.1" x2="403" y2="516.1"/>
		
			<line opacity="0.3" clip-path="url(#SVGID_2_)" fill="none" stroke="#F1654F" stroke-miterlimit="10" x1="-69.8" y1="69.6" x2="409.3" y2="509.7"/>
		
			<line opacity="0.3" clip-path="url(#SVGID_2_)" fill="none" stroke="#F1654F" stroke-miterlimit="10" x1="-63.5" y1="63.2" x2="415.7" y2="503.2"/>
		
			<line opacity="0.3" clip-path="url(#SVGID_2_)" fill="none" stroke="#F1654F" stroke-miterlimit="10" x1="-57.1" y1="56.7" x2="422.1" y2="496.8"/>
		
			<line opacity="0.3" clip-path="url(#SVGID_2_)" fill="none" stroke="#F1654F" stroke-miterlimit="10" x1="-50.7" y1="50.3" x2="428.4" y2="490.4"/>
		
			<line opacity="0.3" clip-path="url(#SVGID_2_)" fill="none" stroke="#F1654F" stroke-miterlimit="10" x1="-44.4" y1="43.8" x2="434.8" y2="483.9"/>
		
			<line opacity="0.3" clip-path="url(#SVGID_2_)" fill="none" stroke="#F1654F" stroke-miterlimit="10" x1="-38" y1="37.4" x2="441.2" y2="477.5"/>
		
			<line clip-path="url(#SVGID_2_)" fill="none" stroke="#F1654F" stroke-miterlimit="10" x1="-31.7" y1="30.9" x2="447.5" y2="471"/>
		
			<line clip-path="url(#SVGID_2_)" fill="none" stroke="#F1654F" stroke-miterlimit="10" x1="-25.3" y1="24.5" x2="453.9" y2="464.6"/>
		
			<line clip-path="url(#SVGID_2_)" fill="none" stroke="#F1654F" stroke-miterlimit="10" x1="-18.9" y1="18.1" x2="460.3" y2="458.1"/>
		
			<line clip-path="url(#SVGID_2_)" fill="none" stroke="#F1654F" stroke-miterlimit="10" x1="-12.6" y1="11.6" x2="466.6" y2="451.7"/>
		<line clip-path="url(#SVGID_2_)" fill="none" stroke="#F1654F" stroke-miterlimit="10" x1="-6.2" y1="5.2" x2="473" y2="445.2"/>
		
			<line clip-path="url(#SVGID_2_)" fill="none" stroke="#F1654F" stroke-miterlimit="10" x1="0.2" y1="-1.3" x2="479.3" y2="438.8"/>
		
			<line clip-path="url(#SVGID_2_)" fill="none" stroke="#F1654F" stroke-miterlimit="10" x1="6.5" y1="-7.7" x2="485.7" y2="432.4"/>
		
			<line clip-path="url(#SVGID_2_)" fill="none" stroke="#F1654F" stroke-miterlimit="10" x1="12.9" y1="-14.2" x2="492.1" y2="425.9"/>
		
			<line clip-path="url(#SVGID_2_)" fill="none" stroke="#F1654F" stroke-miterlimit="10" x1="19.3" y1="-20.6" x2="498.4" y2="419.5"/>
		
			<line clip-path="url(#SVGID_2_)" fill="none" stroke="#F1654F" stroke-miterlimit="10" x1="25.6" y1="-27.1" x2="488.8" y2="442"/>
		
			<line clip-path="url(#SVGID_2_)" fill="none" stroke="#F1654F" stroke-miterlimit="10" x1="32" y1="-33.5" x2="495.2" y2="435.6"/>
		
			<line clip-path="url(#SVGID_2_)" fill="none" stroke="#F1654F" stroke-miterlimit="10" x1="38.3" y1="-39.9" x2="501.5" y2="429.1"/>
		
			<line clip-path="url(#SVGID_2_)" fill="none" stroke="#F1654F" stroke-miterlimit="10" x1="44.7" y1="-46.4" x2="507.9" y2="422.7"/>
		
			<line clip-path="url(#SVGID_2_)" fill="none" stroke="#F1654F" stroke-miterlimit="10" x1="51.1" y1="-52.8" x2="514.3" y2="416.2"/>
		
			<line clip-path="url(#SVGID_2_)" fill="none" stroke="#F1654F" stroke-miterlimit="10" x1="57.4" y1="-59.3" x2="520.6" y2="409.8"/>
		
			<line clip-path="url(#SVGID_2_)" fill="none" stroke="#F1654F" stroke-miterlimit="10" x1="63.8" y1="-65.7" x2="527" y2="403.3"/>
		
			<line clip-path="url(#SVGID_2_)" fill="none" stroke="#F1654F" stroke-miterlimit="10" x1="70.2" y1="-72.2" x2="533.3" y2="396.9"/>
		
			<line clip-path="url(#SVGID_2_)" fill="none" stroke="#F1654F" stroke-miterlimit="10" x1="76.5" y1="-78.6" x2="539.7" y2="390.5"/>
		
			<line clip-path="url(#SVGID_2_)" fill="none" stroke="#F1654F" stroke-miterlimit="10" x1="82.9" y1="-85.1" x2="546.1" y2="384"/>
		
			<line clip-path="url(#SVGID_2_)" fill="none" stroke="#F1654F" stroke-miterlimit="10" x1="89.3" y1="-91.5" x2="552.4" y2="377.6"/>
		
			<line clip-path="url(#SVGID_2_)" fill="none" stroke="#F1654F" stroke-miterlimit="10" x1="95.6" y1="-98" x2="558.8" y2="371.1"/>
	</g>
</g>
</svg>
