<?xml version="1.0" encoding="utf-8"?>
<!-- Generator: Adobe Illustrator 18.0.0, SVG Export Plug-In . SVG Version: 6.00 Build 0)  -->
<!DOCTYPE svg PUBLIC "-//W3C//DTD SVG 1.1//EN" "http://www.w3.org/Graphics/SVG/1.1/DTD/svg11.dtd">
<svg version="1.1" id="Layer_1" xmlns="http://www.w3.org/2000/svg" xmlns:xlink="http://www.w3.org/1999/xlink" x="0px" y="0px"
	 width="444px" height="330.5px" viewBox="0 0 444 330.5" enable-background="new 0 0 444 330.5" xml:space="preserve">
<path fill="none" stroke="#F0533C" stroke-width="6" stroke-miterlimit="10" d="M106.8,108.1"/>
<polyline fill="none" stroke="#F0533C" stroke-width="8" stroke-miterlimit="10" points="316.6,108.1 316.6,263.4 106.8,263.4 
	106.8,230.9 "/>
<polyline fill="none" stroke="#F0533C" stroke-width="11" stroke-miterlimit="10" points="95.7,119.5 211.7,33.5 327.6,119.5 "/>
<path fill="none" stroke="#F0533C" stroke-width="6" stroke-miterlimit="10" d="M57.8,240.6"/>
<line fill="none" stroke="#F0533C" stroke-width="8" stroke-miterlimit="10" x1="106.5" y1="195.6" x2="106.5" y2="160.7"/>
<line opacity="0.4" fill="none" stroke="#F0533C" stroke-width="8" stroke-miterlimit="10" x1="106.5" y1="160.7" x2="106.5" y2="125.8"/>
<line fill="none" stroke="#F0533C" stroke-width="8" stroke-miterlimit="10" x1="106.8" y1="125.8" x2="106.8" y2="107.8"/>
<polygon opacity="0.5" fill="#F0533C" points="222.4,300.8 222.4,277.8 204.2,277.8 204.2,300.8 195.4,300.8 213.3,318.4 
	231.2,300.8 "/>
<polygon opacity="0.5" fill="#F0533C" points="299.7,53.9 287.5,69.5 299.8,79.2 312.1,63.6 318,68.3 315.3,46.8 293.7,49.2 "/>
<polygon fill="#7B1316" points="374.3,232.9 330.6,232.9 330.6,267.6 374.3,267.6 374.3,284.5 408.1,250.3 374.3,216.1 "/>
<polygon fill="#F0533C" points="356.5,133.9 330.6,133.9 330.6,154.4 356.5,154.4 356.5,164.4 376.5,144.2 356.5,123.9 "/>
<polygon fill="#F0533C" points="61.5,162.9 91.9,162.9 91.9,138.8 61.5,138.8 61.5,127.1 38,150.8 61.5,174.6 "/>
<polygon fill="#7B1316" points="54.4,253.2 91.9,253.2 91.9,223.4 54.4,223.4 54.4,209 25.4,238.3 54.4,267.7 "/>
<rect x="110.1" y="163.2" fill="none" width="201.9" height="26.8"/>
<text transform="matrix(1 0 0 1 191.0084 172.7823)"><tspan x="0" y="0" fill="#F0533C" font-family="'Karla-Bold'" font-size="14">TOTAL </tspan><tspan x="-5.4" y="16.8" fill="#F0533C" font-family="'Karla-Regular'" font-size="14">421 W/K</tspan></text>
<rect x="328.5" y="75.8" fill="none" width="84" height="22.1"/>
<text transform="matrix(1 0 0 1 328.5163 82.6733)"><tspan x="0" y="0" fill="#F0533C" font-family="'Karla-Bold'" font-size="10">Thernal Bridging</tspan><tspan x="0" y="12" fill="#F0533C" font-family="'Karla-Regular'" font-size="10">46 W/K</tspan></text>
<rect x="230.6" y="14.3" fill="none" width="84" height="22.1"/>
<text transform="matrix(1 0 0 1 230.624 21.1785)"><tspan x="0" y="0" fill="#F0533C" font-family="'Karla-Bold'" font-size="10">Roof</tspan><tspan x="0" y="12" fill="#F0533C" font-family="'Karla-Regular'" font-size="10">11 W/K</tspan></text>
<rect x="330.6" y="277.1" fill="none" width="84" height="22.1"/>
<text transform="matrix(1 0 0 1 330.5875 283.9302)"><tspan x="0" y="0" fill="#F0533C" font-family="'Karla-Bold'" font-size="10">Walls</tspan><tspan x="0" y="12" fill="#F0533C" font-family="'Karla-Regular'" font-size="10">147 W/K</tspan></text>
<rect x="248.5" y="277.1" fill="none" width="84" height="22.1"/>
<text transform="matrix(1 0 0 1 248.466 283.9302)"><tspan x="0" y="0" fill="#F0533C" font-family="'Karla-Bold'" font-size="10">Floor</tspan><tspan x="0" y="12" fill="#F0533C" font-family="'Karla-Regular'" font-size="10">33 W/K</tspan></text>
<rect x="53.4" y="277.1" fill="none" width="84" height="22.1"/>
<text transform="matrix(1 0 0 1 53.3572 283.9302)"><tspan x="0" y="0" fill="#F0533C" font-family="'Karla-Bold'" font-size="10">Ventilation</tspan><tspan x="0" y="12" fill="#F0533C" font-family="'Karla-Regular'" font-size="10">106 W/K</tspan></text>
<rect x="26.3" y="83.3" fill="none" width="65.6" height="22.1"/>
<text transform="matrix(1 0 0 1 48.0902 90.1215)"><tspan x="0" y="0" fill="#F0533C" font-family="'Karla-Bold'" font-size="10">Windows</tspan><tspan x="11.2" y="12" fill="#F0533C" font-family="'Karla-Regular'" font-size="10">78 W/K</tspan></text>
<g opacity="0.4">
	<polygon fill="#F0533C" points="110.1,133.2 102.8,128.8 102.8,129.9 110.1,134.3 	"/>
	<polygon fill="#F0533C" points="110.1,141.5 102.8,137.1 102.8,138.2 110.1,142.6 	"/>
	<polygon fill="#F0533C" points="110.1,149.8 102.8,145.4 102.8,146.4 110.1,150.8 	"/>
	<polygon fill="#F0533C" points="110.1,158 102.8,153.6 102.8,154.7 110.1,159.1 	"/>
</g>
<line opacity="0.4" fill="none" stroke="#F0533C" stroke-width="8" stroke-miterlimit="10" x1="106.5" y1="230.7" x2="106.5" y2="195.8"/>
<g opacity="0.4">
	<polygon fill="#F0533C" points="110.1,203.2 102.8,198.8 102.8,199.9 110.1,204.3 	"/>
	<polygon fill="#F0533C" points="110.1,211.5 102.8,207.1 102.8,208.2 110.1,212.6 	"/>
	<polygon fill="#F0533C" points="110.1,219.8 102.8,215.4 102.8,216.4 110.1,220.8 	"/>
	<polygon fill="#F0533C" points="110.1,228 102.8,223.6 102.8,224.7 110.1,229.1 	"/>
</g>
</svg>
